<svg xmlns="http://www.w3.org/2000/svg" width="600" height="600" viewBox="0 0 600 600">
  <!-- Deep blue ocean background -->
  <circle cx="300" cy="300" r="290" fill="#1a4c8e" />
  
  <!-- Ocean gradient overlay -->
  <circle cx="300" cy="300" r="290" fill="url(#ocean-gradient)" />
  
  <!-- Africa and Europe -->
  <path d="M340,140 C370,130 400,150 410,180 C420,210 430,250 420,280 C410,310 390,340 360,360 C330,380 300,390 270,380 C240,370 220,340 210,310 C200,280 190,240 200,210 C210,180 230,160 260,150 C290,140 320,145 340,140 Z" fill="#6BA14F" />
  
  <!-- Americas -->
  <path d="M160,120 C190,110 220,120 240,150 C260,180 270,220 260,250 C250,280 230,310 200,330 C170,350 140,360 110,350 C80,340 60,310 50,280 C40,250 45,210 60,180 C75,150 100,130 130,120 C140,115 150,120 160,120 Z" fill="#7AB55C" />
  
  <!-- Asia and Australia -->
  <path d="M480,200 C510,190 530,200 540,230 C550,260 550,300 540,330 C530,360 510,380 480,390 C450,400 410,400 380,390 C350,380 330,350 320,320 C310,290 310,250 320,220 C330,190 350,170 380,160 C410,150 450,170 480,200 Z" fill="#6BA14F" />
  <path d="M510,380 C520,370 530,380 540,390 C550,400 550,420 540,435 C530,450 510,460 490,455 C470,450 460,430 460,415 C460,400 470,390 485,380 C490,375 500,375 510,380 Z" fill="#7AB55C" />
  
  <!-- Antarctica -->
  <path d="M300,500 C330,490 370,490 400,500 C430,510 450,530 460,560 C420,570 380,580 340,580 C300,580 260,570 220,560 C230,530 250,510 280,500 C280,500 290,500 300,500 Z" fill="#E0E0E0" />
  
  <!-- Cloud patterns with transparency -->
  <path d="M120,150 C140,140 160,145 170,160 C180,175 180,195 170,210 C160,225 140,230 120,220 C100,210 90,190 100,175 C110,160 100,160 120,150 Z" fill="rgba(255,255,255,0.4)" />
  <path d="M420,280 C440,270 460,275 470,290 C480,305 480,325 470,340 C460,355 440,360 420,350 C400,340 390,320 400,305 C410,290 400,290 420,280 Z" fill="rgba(255,255,255,0.4)" />
  <path d="M250,400 C270,390 290,395 300,410 C310,425 310,445 300,460 C290,475 270,480 250,470 C230,460 220,440 230,425 C240,410 230,410 250,400 Z" fill="rgba(255,255,255,0.35)" />
  
  <!-- 3D lighting effect -->
  <circle cx="300" cy="300" r="290" fill="url(#highlight)" />
  
  <!-- Subtle outer glow -->
  <circle cx="300" cy="300" r="296" stroke="rgba(100,180,255,0.4)" stroke-width="8" fill="none" />
  
  <defs>
    <!-- Ocean gradient for depth -->
    <radialGradient id="ocean-gradient" cx="50%" cy="50%" r="70%">
      <stop offset="0%" stop-color="#1a6cbe" />
      <stop offset="100%" stop-color="#0a3c7e" />
    </radialGradient>
    
    <!-- Highlight for 3D effect -->
    <radialGradient id="highlight" cx="30%" cy="30%" r="60%">
      <stop offset="0%" stop-color="rgba(255,255,255,0.3)" />
      <stop offset="100%" stop-color="rgba(0,0,0,0)" />
    </radialGradient>
  </defs>
</svg> 