<svg xmlns="http://www.w3.org/2000/svg" width="1200" height="600" viewBox="0 0 1200 600">
  <defs>
    <linearGradient id="grad1" x1="0%" y1="0%" x2="100%" y2="0%">
      <stop offset="0%" style="stop-color:#0A3D62;stop-opacity:1" />
      <stop offset="100%" style="stop-color:#1E5F8C;stop-opacity:1" />
    </linearGradient>
    <filter id="shadow" x="-20%" y="-20%" width="140%" height="140%">
      <feGaussianBlur stdDeviation="5" />
    </filter>
  </defs>
  <rect width="1200" height="600" fill="url(#grad1)"/>
  <polygon points="0,400 200,350 400,420 600,380 800,430 1000,370 1200,400 1200,600 0,600" fill="#FFFFFF" opacity="0.2"/>
  <circle cx="900" cy="150" r="60" fill="#FFFFFF" opacity="0.2"/>
  <text x="600" y="200" font-family="Arial" font-size="40" fill="#FFFFFF" text-anchor="middle" filter="url(#shadow)">UTTARAKHAND</text>
  <text x="600" y="250" font-family="Arial" font-size="24" fill="#FFFFFF" text-anchor="middle">The Land of Gods</text>
  
  <!-- Mountain silhouettes -->
  <polygon points="0,300 100,200 200,260 300,180 400,250 500,150 600,220 700,170 800,230 900,150 1000,240 1100,180 1200,220 1200,600 0,600" fill="#0A2E1C" opacity="0.5"/>
</svg> 