<svg width="100" height="100" xmlns="http://www.w3.org/2000/svg">
  <pattern id="pattern" width="100" height="100" patternUnits="userSpaceOnUse">
    <rect width="100" height="100" fill="none"/>
    <path d="M0,0 L10,10 M20,0 L30,10 M40,0 L50,10 M60,0 L70,10 M80,0 L90,10 M0,20 L10,30 M20,20 L30,30 M40,20 L50,30 M60,20 L70,30 M80,20 L90,30 M0,40 L10,50 M20,40 L30,50 M40,40 L50,50 M60,40 L70,50 M80,40 L90,50 M0,60 L10,70 M20,60 L30,70 M40,60 L50,70 M60,60 L70,70 M80,60 L90,70 M0,80 L10,90 M20,80 L30,90 M40,80 L50,90 M60,80 L70,90 M80,80 L90,90" stroke="white" stroke-width="0.5" opacity="0.3"/>
  </pattern>
  <rect width="100" height="100" fill="url(#pattern)"/>
</svg> 