<svg xmlns="http://www.w3.org/2000/svg" width="800" height="600" viewBox="0 0 800 600">
  <!-- Sky background -->
  <rect width="800" height="600" fill="#87CEEB"/>
  
  <!-- Mountains in background -->
  <polygon points="0,250 100,170 200,220 300,150 400,240 500,180 600,230 700,160 800,230 800,600 0,600" fill="#6B8E23" opacity="0.8"/>
  <polygon points="0,280 150,220 300,290 450,200 600,280 750,220 800,260 800,600 0,600" fill="#556B2F" opacity="0.9"/>
  
  <!-- House -->
  <rect x="200" y="300" width="400" height="200" fill="#E8C39E"/>
  <polygon points="200,300 400,200 600,300" fill="#CD853F"/>
  
  <!-- Windows and door -->
  <rect x="250" y="350" width="80" height="80" fill="#4682B4"/>
  <rect x="470" y="350" width="80" height="80" fill="#4682B4"/>
  <rect x="350" y="400" width="100" height="100" fill="#8B4513"/>
  
  <!-- Property details -->
  <rect x="0" y="530" width="800" height="70" fill="#0A3D62" opacity="0.8"/>
  <text x="20" y="560" font-family="Arial" font-size="20" font-weight="bold" fill="#FFFFFF">Mountain View Villa</text>
  <text x="20" y="590" font-family="Arial" font-size="16" fill="#FFFFFF">Nainital, Uttarakhand</text>
  
  <!-- 360 View Badge -->
  <rect x="650" y="20" width="120" height="40" rx="20" fill="#FFD700"/>
  <text x="710" y="45" font-family="Arial" font-size="18" font-weight="bold" text-anchor="middle" fill="#0A3D62">360° View</text>
</svg> 